<svg width="20" height="20" viewBox="0 0 20 20" fill="none" xmlns="http://www.w3.org/2000/svg">
<path fill-rule="evenodd" clip-rule="evenodd" d="M10 20C15.5228 20 20 15.5228 20 10C20 4.47715 15.5228 0 10 0C4.47715 0 0 4.47715 0 10C0 15.5228 4.47715 20 10 20ZM5.75 4C5.33579 4 5 4.33579 5 4.75C5 4.91228 5.05263 5.07018 5.15 5.2L7.4 8.2C7.78947 8.71929 8 9.35089 8 10C8 10.6491 7.78947 11.2807 7.4 11.8L5.15 14.8C5.05263 14.9298 5 15.0877 5 15.25C5 15.6642 5.33579 16 5.75 16H5.82196C5.93929 16 6.05527 15.9749 6.16208 15.9263L16.0896 11.4138C16.644 11.1618 17 10.609 17 10C17 9.391 16.644 8.8382 16.0896 8.5862L6.16208 4.07367C6.05527 4.02512 5.93929 4 5.82196 4H5.75Z" fill="#FF964B"/>
</svg>
