<svg width="20" height="20" viewBox="0 0 20 20" fill="none" xmlns="http://www.w3.org/2000/svg">
<path fill-rule="evenodd" clip-rule="evenodd" d="M10 20C15.5228 20 20 15.5228 20 10C20 4.47715 15.5228 0 10 0C4.47715 0 0 4.47715 0 10C0 15.5228 4.47715 20 10 20ZM9.49223 7.12132L7.61355 9H15.5425C16.0948 9 16.5425 9.44771 16.5425 10C16.5425 10.5523 16.0948 11 15.5425 11H7.9567L9.49222 12.5355C9.88275 12.926 9.88275 13.5592 9.49222 13.9497C9.1017 14.3403 8.46853 14.3403 8.07801 13.9497L4.83645 10.7082C4.83573 10.7075 4.83502 10.7067 4.8343 10.706L4.7101 10.5818C4.51198 10.3837 4.41437 10.1231 4.41727 9.86347C4.39529 9.58211 4.4919 9.29322 4.70711 9.07801L8.07801 5.70711C8.46854 5.31658 9.1017 5.31658 9.49223 5.70711C9.88275 6.09763 9.88275 6.7308 9.49223 7.12132Z" fill="#FF964B"/>
</svg>
