<svg width="20" height="20" viewBox="0 0 20 20" fill="none" xmlns="http://www.w3.org/2000/svg">
<path fill-rule="evenodd" clip-rule="evenodd" d="M10 20C15.5228 20 20 15.5228 20 10C20 4.47715 15.5228 0 10 0C4.47715 0 0 4.47715 0 10C0 15.5228 4.47715 20 10 20ZM6 9C5.44772 9 5 9.44771 5 10C5 10.5523 5.44772 11 6 11H14C14.5523 11 15 10.5523 15 10C15 9.44771 14.5523 9 14 9H6ZM5 6C5 5.44772 5.44772 5 6 5H14C14.5523 5 15 5.44772 15 6C15 6.55228 14.5523 7 14 7H6C5.44772 7 5 6.55228 5 6ZM6 13C5.44772 13 5 13.4477 5 14C5 14.5523 5.44772 15 6 15H14C14.5523 15 15 14.5523 15 14C15 13.4477 14.5523 13 14 13H6Z" fill="#FF964B"/>
</svg>
