<svg width="20" height="20" viewBox="0 0 20 20" fill="none" xmlns="http://www.w3.org/2000/svg">
<path d="M18.474 13.007C15.9332 14.8146 12.6006 15.0154 9.88931 13.6M1.52601 6.99301C4.07296 5.1811 7.4156 4.98375 10.1303 6.41035M13.0363 11.9119C15.6344 10.2745 17.1387 7.27672 16.8409 4.161M6.92366 8.11335C4.35008 9.7562 2.86263 12.7393 3.1589 15.839M13.1742 8.32331C13.0545 5.25566 11.2105 2.45516 8.3639 1.155M6.82807 11.7331C6.96802 14.7787 8.80688 17.5528 11.6359 18.845M16.3639 3.63604C19.8787 7.15077 19.8787 12.8492 16.3639 16.3639C12.8492 19.8787 7.15075 19.8787 3.63604 16.3639C0.12132 12.8492 0.12132 7.15075 3.63604 3.63604C7.15077 0.12132 12.8492 0.12132 16.3639 3.63604ZM12.5456 7.45442C13.9515 8.86034 13.9515 11.1397 12.5456 12.5456C11.1397 13.9515 8.86034 13.9515 7.45442 12.5456C6.04854 11.1397 6.04854 8.86034 7.45442 7.45442C8.86034 6.04854 11.1397 6.04854 12.5456 7.45442Z" stroke="#FF964B" stroke-width="2" stroke-linecap="round" stroke-linejoin="round"/>
</svg>
